<svg xmlns="http://www.w3.org/2000/svg" viewBox="0 0 1024 1024">
  <defs>
    <linearGradient id="bg" x1="188" y1="116" x2="824" y2="912" gradientUnits="userSpaceOnUse">
      <stop offset="0" stop-color="#0EA5E9"/>
      <stop offset="0.46" stop-color="#111827"/>
      <stop offset="1" stop-color="#020617"/>
    </linearGradient>
    <linearGradient id="case" x1="278" y1="310" x2="766" y2="768" gradientUnits="userSpaceOnUse">
      <stop offset="0" stop-color="#E0F2FE"/>
      <stop offset="1" stop-color="#38BDF8"/>
    </linearGradient>
  </defs>
  <rect width="1024" height="1024" rx="228" fill="url(#bg)"/>
  <circle cx="236" cy="218" r="112" fill="#7DD3FC" opacity="0.22"/>
  <circle cx="820" cy="800" r="170" fill="#22C55E" opacity="0.13"/>
  <path d="M382 384v-54c0-50 40-90 90-90h104c50 0 90 40 90 90v54" fill="none" stroke="#F8FAFC" stroke-width="54" stroke-linecap="round"/>
  <rect x="238" y="370" width="548" height="388" rx="86" fill="url(#case)" stroke="#F8FAFC" stroke-width="28"/>
  <path d="M238 514h548" stroke="#0F172A" stroke-width="28" opacity="0.45"/>
  <path d="M403 600l92 92 186-210" fill="none" stroke="#0F172A" stroke-width="58" stroke-linecap="round" stroke-linejoin="round"/>
  <path d="M782 230v70M817 265h-70" stroke="#FDE68A" stroke-width="26" stroke-linecap="round"/>
  <path d="M222 742v48M246 766h-48" stroke="#BAE6FD" stroke-width="20" stroke-linecap="round"/>
</svg>
